<?xml version="1.0" standalone="no"?>
<!DOCTYPE svg PUBLIC "-//W3C//DTD SVG 20010904//EN"
 "http://www.w3.org/TR/2001/REC-SVG-20010904/DTD/svg10.dtd">
<svg version="1.0" xmlns="http://www.w3.org/2000/svg"
 width="736.000000pt" height="736.000000pt" viewBox="0 0 736.000000 736.000000"
 preserveAspectRatio="xMidYMid meet">
<metadata>
Created by potrace 1.11, written by Peter Selinger 2001-2013
</metadata>
<g transform="translate(0.000000,736.000000) scale(0.100000,-0.100000)"
fill="#000000" stroke="none">
<path d="M3415 7034 c-303 -25 -671 -110 -952 -220 -1044 -409 -1821 -1313
-2063 -2399 -62 -278 -74 -401 -74 -735 0 -266 2 -324 22 -455 81 -534 242
-961 527 -1395 133 -202 350 -461 497 -591 l68 -61 0 256 c0 141 3 256 7 256
9 0 432 90 456 96 16 5 17 -23 17 -483 l0 -488 33 -19 c123 -70 266 -145 350
-182 l97 -43 0 659 c0 619 1 659 18 664 24 7 443 96 454 96 4 0 8 -355 8 -788
l0 -789 78 -16 c100 -21 239 -45 330 -55 l72 -8 0 881 0 880 238 51 237 50 3
-937 2 -938 68 5 c102 8 301 33 360 45 l52 10 0 959 0 958 23 5 c27 7 449 97
453 97 2 0 5 -425 6 -945 l3 -944 125 50 c69 27 176 75 237 106 l113 56 2 891
3 891 220 47 c121 26 228 47 238 48 16 0 17 -43 17 -775 0 -426 4 -775 8 -775
5 0 55 42 111 93 57 50 112 98 123 106 11 8 69 69 129 134 l109 120 0 603 c0
332 3 604 8 604 6 0 383 80 449 95 l23 5 2 -277 3 -278 49 115 c88 205 174
487 211 690 65 357 72 761 19 1120 -198 1359 -1242 2481 -2589 2780 -252 56
-396 72 -685 75 -146 1 -287 1 -315 -1z m2495 -1372 c-51 -98 -98 -155 -167
-199 -61 -39 -73 -69 -20 -51 58 19 256 116 303 148 26 17 49 29 52 26 9 -10
-49 -77 -96 -111 -26 -19 -84 -55 -129 -80 -90 -51 -127 -83 -83 -72 137 32
282 59 288 53 10 -11 -39 -48 -133 -103 -134 -77 -133 -75 -30 -68 110 7 127
0 96 -43 -26 -38 -79 -80 -149 -119 l-53 -30 61 -7 c49 -6 61 -10 58 -24 -6
-29 -86 -80 -172 -108 -57 -19 -83 -32 -82 -42 2 -25 -83 -70 -174 -92 -142
-34 -141 -34 -75 -40 56 -5 60 -7 63 -31 4 -35 -67 -99 -146 -129 -72 -29 -85
-40 -44 -40 25 0 33 -5 38 -24 13 -54 -38 -142 -96 -166 -22 -9 -28 -16 -20
-24 17 -22 -14 -49 -108 -95 -55 -27 -94 -53 -100 -66 -7 -14 -27 -27 -57 -35
-30 -8 -50 -21 -57 -34 -10 -24 -70 -58 -133 -76 -22 -7 -49 -23 -60 -36 -16
-18 -38 -27 -85 -35 -36 -6 -77 -19 -92 -30 -15 -10 -53 -21 -85 -25 -32 -3
-75 -12 -95 -21 -31 -13 -51 -14 -116 -6 -85 11 -156 4 -216 -21 -96 -40 -129
-90 -141 -211 -9 -97 10 -401 45 -709 17 -142 27 -269 24 -282 -8 -31 -34 -38
-99 -24 -46 10 -57 9 -80 -6 -23 -15 -32 -16 -83 -4 -68 16 -81 25 -99 68 -18
43 -38 50 -67 23 -26 -24 -68 -28 -86 -6 -7 8 -22 39 -34 70 l-23 55 -47 -61
c-40 -51 -51 -60 -74 -57 -24 3 -27 8 -30 46 -2 23 -5 42 -8 42 -2 0 -21 -9
-41 -20 -45 -24 -96 -26 -113 -5 -9 11 -10 25 -2 56 9 34 8 40 -5 35 -8 -3
-38 -9 -67 -12 -53 -6 -53 -6 -64 25 -11 30 -13 31 -66 29 -58 -2 -102 21 -92
49 4 9 -10 21 -39 33 -70 30 -64 48 68 177 61 61 134 130 160 154 103 92 397
433 397 460 0 5 -6 9 -14 9 -7 0 -19 7 -27 16 -11 13 -26 15 -90 9 -71 -6 -78
-5 -92 15 -12 18 -30 24 -95 31 -44 5 -92 16 -108 24 -16 8 -39 15 -52 15 -12
0 -39 7 -59 15 -19 8 -42 15 -50 15 -8 0 -26 9 -40 20 -16 12 -41 20 -65 20
-34 0 -47 7 -96 54 -31 29 -77 62 -102 73 -25 11 -56 32 -69 47 -16 17 -35 26
-55 26 -58 0 -109 22 -156 66 -26 24 -68 51 -94 60 -49 17 -116 83 -116 116 0
9 -12 25 -27 34 -71 43 -90 59 -115 92 -33 42 -36 72 -8 79 34 9 18 26 -59 65
-76 38 -121 73 -121 93 0 15 44 35 78 35 20 0 7 9 -48 33 -42 18 -97 48 -124
67 -45 30 -48 34 -31 46 10 7 43 18 74 25 44 9 52 13 36 20 -11 4 -54 22 -95
39 -79 32 -125 63 -116 78 3 5 65 15 138 22 132 13 133 13 98 28 -198 87 -331
163 -344 198 -3 8 -4 14 -3 14 2 0 70 -16 152 -35 82 -19 150 -33 153 -31 2 2
-26 25 -61 50 -97 69 -233 223 -215 242 3 2 40 -22 84 -54 43 -32 112 -79 152
-105 l72 -47 -20 38 c-12 20 -45 72 -75 116 -50 71 -84 143 -101 211 -13 50
13 23 55 -59 74 -144 218 -281 356 -339 33 -14 96 -35 140 -47 44 -12 218 -66
386 -120 391 -127 450 -139 696 -142 105 -2 194 0 198 3 3 4 -4 33 -17 65 -19
49 -30 62 -62 78 -35 17 -50 18 -142 10 -57 -5 -104 -8 -104 -6 0 37 231 290
317 348 32 21 63 45 69 53 8 10 39 13 146 9 l136 -4 85 -42 c91 -45 184 -112
194 -140 4 -9 14 -29 24 -43 13 -18 15 -29 8 -36 -14 -14 9 -59 46 -93 15 -14
38 -42 52 -63 27 -43 65 -63 158 -83 132 -29 262 -11 499 67 83 28 187 59 233
70 45 11 104 30 130 44 27 13 91 35 143 50 239 66 462 150 555 210 59 38 115
97 174 183 23 35 45 61 48 59 3 -3 -14 -41 -37 -85z"/>
</g>
</svg>
